<?xml version='1.0' encoding='utf-8'?>
<svg xmlns="http://www.w3.org/2000/svg" version="1.1" width="1080px" height="2132px" viewBox="0 0 1080 2132"> <g id="layer1"> <g style="fill:rgb(255,255,255); fill-opacity:0.99607843; stroke-linejoin: miter"> <path d="M196.999,680.718C196.92447,680.718,196.853,680.7477,196.80031,680.80035C196.74762,680.853,196.71802,680.9245,196.71802,680.999L196.71902,1172.0C196.71902,1172.1552,196.84482,1172.281,197.0,1172.281L689.001,1172.282C689.0755,1172.282,689.147,1172.2524,689.19965,1172.1997C689.2523,1172.147,689.282,1172.0754,689.282,1172.001L689.281,681.0C689.281,680.84485,689.15515,680.719,689.0,680.719L196.999,680.718 Z"/> </g> </g> <g id="layer2"> <g style="fill:rgb(255,255,255); fill-opacity:1.0; stroke-linejoin: miter"> <path d="M365.80392,982.8996C365.7507,982.89874,365.69727,982.91315,365.64984,982.94037C365.55563,982.99396,365.4972,983.0942,365.49683,983.2044L365.35626,1054.4207C365.35648,1054.5293,365.41373,1054.6311,365.50836,1054.6848C365.55533,1054.7122,365.60712,1054.7256,365.65878,1054.7249C365.7117,1054.7256,365.76483,1054.7125,365.81287,1054.6853L427.55127,1019.20294C427.64554,1019.1479,427.7034,1019.04767,427.70435,1018.9378C427.70422,1018.8289,427.64636,1018.7277,427.55228,1018.67474L365.95447,982.9406C365.90793,982.91486,365.8562,982.89935,365.80392,982.8996 Z"/> </g> <g style="fill:rgb(255,4,4); fill-opacity:1.0; stroke-linejoin: miter"> <path d="M365.80133,983.2059L427.39984,1018.9378L365.66132,1054.4225L365.80133,983.2059 Z M427.9,947.17163C413.9297,946.74866,399.9304,946.7212,385.96234,946.6992C358.115,946.62634,330.1462,946.5828,302.5049,949.6141C290.83505,950.89105,281.1266,959.61444,278.3755,971.46246C274.46445,988.3361,274.38196,1006.76056,274.34857,1024.1412C274.3138,1041.5192,274.2785,1059.9402,278.1253,1076.8301C280.82767,1088.6884,290.50134,1097.4487,302.16837,1098.774C315.93576,1100.3392,329.7892,1101.1418,343.669,1101.5575C357.6414,1101.9758,371.64127,1102.0021,385.60956,1102.0243C413.45428,1102.0933,441.4192,1102.1313,469.05292,1099.0967C480.71805,1097.8174,490.42874,1089.0967,493.179,1077.2507C497.0887,1060.3813,497.1487,1041.9626,497.183,1024.5889C497.21872,1007.2116,497.27774,988.79144,493.43277,971.90326C490.73184,960.0464,481.0572,951.2854,469.39288,949.9602C455.62982,948.39343,441.779,947.5891,427.9,947.17163 Z"/> </g> <g style="fill:rgb(245,187,50); fill-opacity:1.0; stroke-linejoin: miter"> <path d="M654.69055,828.0415L654.43915,832.63226Q652.4183,846.5218,641.8776,854.9651Q631.2625,863.40436,616.71844,862.01587Q602.82965,859.9971,594.3849,849.45593Q591.67847,846.0491,589.9045,842.0115L588.40216,837.8584Q587.15485,833.56775,587.0833,828.8871Q587.2677,814.518,596.68555,804.86053Q606.1061,795.2037,620.4658,794.66077Q634.8344,794.8442,644.4915,804.26337Q654.1476,813.6823,654.69055,828.0415 Z"/> </g> <g style="fill:rgb(203,145,9); fill-opacity:1.0; stroke-linejoin: miter"> <path d="M649.4002,828.1936L649.1872,832.06555Q647.48206,843.78064,638.59235,850.9038Q629.6382,858.02094,617.37006,856.85046Q605.6554,855.1468,598.5318,846.25446Q596.25116,843.38116,594.75366,839.977L593.4863,836.4729Q592.4345,832.85486,592.3735,828.90625Q592.5293,816.78613,600.474,808.6403Q608.4181,800.49384,620.5316,800.03613Q632.6518,800.1912,640.79785,808.1363Q648.942,816.08093,649.4002,828.1936 Z"/> </g> <g style="fill:rgb(210,160,68); fill-opacity:1.0; stroke-linejoin: miter"> <path d="M648.7031,828.2125L648.49603,831.9901Q646.8327,843.41986,638.1593,850.3683Q629.4249,857.31226,617.45624,856.16974Q606.0279,854.507,599.0779,845.8333Q596.8524,843.02966,595.39215,839.7087L594.15643,836.29065Q593.1296,832.7607,593.0702,828.90894Q593.22046,817.0843,600.97284,809.1371Q608.7228,801.19037,620.54065,800.74414Q632.36346,800.8951,640.31085,808.6459Q648.2574,816.3967,648.7031,828.2125 Z"/> </g> <g style="fill:rgb(203,145,9); fill-opacity:1.0; stroke-linejoin: miter"> <path d="M623.4388,843.89154L623.4407,841.024Q625.8385,840.043,627.3381,837.905Q628.8381,835.76575,628.84,833.02704Q628.8425,831.27325,628.1586,829.6894Q627.476,828.1482,626.3223,826.9915Q625.1676,825.83545,623.5848,825.14935Q622.0448,824.4631,620.2903,824.4607L620.03314,824.4607Q619.5203,824.3748,619.178,823.9895Q618.83575,823.60394,618.83673,823.04724Q618.8366,822.4486,619.26575,822.021Q619.6949,821.5936,620.2922,821.5945Q620.8921,821.5948,621.31995,822.0229Q621.74756,822.4513,621.74695,823.05023L628.8494,823.05646Q628.8515,821.68835,628.4247,820.4465Q628.0398,819.24786,627.3146,818.1775Q626.6305,817.1501,625.64685,816.336Q624.6628,815.56476,623.4655,815.0929L623.4681,811.84125L616.2802,811.83374L616.27625,815.47125Q614.22186,816.58185,612.97876,818.59235Q611.7364,820.55914,611.7324,823.041Q611.7307,824.7952,612.4154,826.3793Q613.098,827.9202,614.25195,829.07666Q615.4066,830.23346,616.98834,830.9196Q618.5292,831.6054,620.2831,831.6068L620.54095,831.60706Q621.05365,831.6938,621.3948,832.1219Q621.73785,832.50714,621.7364,833.02045Q621.7357,833.6201,621.3086,834.0902Q620.87946,834.51746,620.2813,834.5171Q619.6815,834.5168,619.255,834.045Q618.8264,833.61707,618.8273,833.0181L611.7238,833.01105Q611.7214,835.49255,612.9606,837.5058Q614.19904,839.5183,616.25183,840.6328L616.2495,843.88446 Z"/> </g> <g style="fill:rgb(177,120,50); fill-opacity:1.0; stroke-linejoin: miter"> <path d="M624.04065,843.5325L624.0444,840.6658Q626.4403,839.6836,627.94104,837.54596Q629.44086,835.4071,629.4437,832.6689Q629.44525,830.91437,628.76056,829.3304Q628.0789,827.78906,626.9243,826.6334Q625.7703,825.4764,624.18695,824.79004Q622.6469,824.1035,620.8922,824.10223L620.6352,824.1017Q620.1224,824.01575,619.78,823.6306Q619.4385,823.24493,619.43945,822.68854Q619.44025,822.0899,619.8685,821.6625Q620.29694,821.2343,620.8951,821.23535Q621.49414,821.23615,621.92194,821.6643Q622.34875,822.0923,622.3489,822.69104L629.4531,822.69824Q629.45355,821.32935,629.0274,820.0882Q628.6434,818.889,627.91736,817.81885Q627.2334,816.7905,626.2489,815.9772Q625.2655,815.2058,624.0674,814.73444L624.07074,811.482L616.882,811.47455L616.8798,815.1124Q614.8237,816.22296,613.5807,818.23303Q612.3383,820.2007,612.336,822.6818Q612.3337,824.4366,613.01746,826.0206Q613.70013,827.56213,614.854,828.7181Q616.0084,829.875,617.5919,830.5607Q619.1313,831.2467,620.885,831.24817L621.1428,831.2486Q621.6558,831.33466,621.9975,831.76294Q622.3398,832.1483,622.33936,832.6615Q622.3377,833.26056,621.90985,833.73145Q621.48236,834.1586,620.8832,834.1582Q620.2842,834.15753,619.8571,833.6869Q619.4293,833.2584,619.4293,832.6595L612.3266,832.65247Q612.3234,835.13403,613.56256,837.1469Q614.8019,839.1593,616.85486,840.2737L616.8505,843.5263 Z"/> </g> <g style="fill:rgb(0,0,0); fill-opacity:1.0; stroke-linejoin: miter"> <path d="M517.55206,1080.6849Q516.1124,1083.6245,515.41815,1087.6156Q514.58545,1092.6124,515.0644,1094.8417Q515.19977,1095.4395,515.5363,1095.8955Q515.63116,1096.1212,516.8254,1096.9878Q517.0893,1097.2642,517.17035,1097.5938Q517.2741,1097.9907,517.2585,1098.616Q516.9648,1102.1213,517.07355,1102.5417Q517.1553,1103.6521,517.72687,1104.4757Q518.9073,1106.2905,523.75507,1107.2024Q532.8175,1108.8923,534.23816,1103.8282Q534.7553,1102.0717,534.1383,1099.6339Q533.63855,1097.4492,531.4383,1092.4559L530.68616,1083.0804L517.5879,1080.6912 Z"/> </g> <g style="fill:rgb(0,0,0); fill-opacity:1.0; stroke-linejoin: miter"> <path d="M561.3226,1066.1963L549.43964,1080.1584Q551.9121,1083.9075,552.3232,1087.354Q552.54755,1088.9172,552.53687,1091.192Q552.5611,1092.2032,552.3171,1097.8829L552.2976,1099.5455Q552.3191,1101.0217,552.5265,1101.8345Q552.7767,1102.8496,553.2979,1103.3113Q553.5838,1103.6583,555.2254,1104.3228Q557.40393,1105.1176,562.4112,1101.1995Q566.6711,1097.7198,567.00977,1094.8011Q567.199,1093.7155,567.02814,1092.215Q567.09955,1092.1997,566.0843,1086.8976L565.72284,1084.5693Q565.3289,1081.6914,565.40643,1080.487Q565.45856,1079.759,565.6694,1079.6093Q565.69916,1079.4294,566.7983,1079.4966Q566.98816,1079.469,567.1723,1079.3588Q567.60175,1079.1293,567.9605,1078.1464Q568.8431,1075.3815,568.32263,1072.301Q567.6952,1067.9554,561.33563,1066.1997 Z"/> </g> <g style="fill:rgb(255,187,152); fill-opacity:1.0; stroke-linejoin: miter"> <path d="M465.98334,916.0829L454.28998,916.0928L454.47272,940.5967Q450.83673,945.0907,450.9115,948.7572Q451.00787,951.0127,452.88312,952.8751Q455.13617,955.0454,457.98016,955.77893Q460.99402,956.49146,462.76324,954.6416Q463.71405,953.6891,464.51788,952.0575Q464.8604,951.3645,465.19208,950.511Q465.4922,949.76416,466.13824,947.7549Q466.30005,947.3246,466.3446,947.3552Q466.41925,947.36475,466.43915,947.65173Q466.53076,950.1127,466.74774,951.07385Q467.02637,952.40393,467.5102,953.2645Q468.64496,955.20166,469.6056,953.254Q470.35907,951.5132,470.4655,948.9999Q470.53186,946.6426,469.90204,945.078Q468.976,942.37683,464.1579,939.51843Q464.17993,934.6561,464.47565,932.0055Q464.50226,931.0382,465.73517,924.40845Q465.9204,923.2256,466.00073,922.1687Q466.19122,919.8844,465.98334,916.08545 Z"/> </g> <g style="fill:rgb(0,0,0); fill-opacity:1.0; stroke-linejoin: miter"> <path d="M526.2902,804.3855Q521.9407,804.0531,517.7954,806.13257Q513.4091,808.3528,511.1002,811.9613Q507.18326,818.0798,509.70096,831.07446L536.73645,831.5753Q538.81165,829.3126,539.73517,827.8281Q540.8908,826.03564,540.8316,824.3013L540.52527,820.2827Q540.8021,815.2925,540.6458,814.8076Q540.48126,812.9939,539.6816,811.6411Q538.10004,808.9409,534.25305,806.8406Q530.1986,804.6804,526.32446,804.3878 Z"/> </g> <g style="fill:rgb(255,4,4); fill-opacity:1.0; stroke-linejoin: miter"> <path d="M532.6898,843.6724L510.9268,844.51215L507.6423,848.3277C495.85257,852.62164,487.3604,857.4024,482.0528,862.5544C473.4237,870.9298,465.17236,881.6615,457.453,894.8905C453.14337,902.2761,451.5454,909.48486,452.617,916.49316L467.68488,917.88904C466.88116,910.1636,467.37292,905.6456,469.02716,904.18054C469.456,903.8013,469.8415,903.30835,470.4228,903.01355C473.46655,901.4713,475.0824,900.6045,475.1856,900.2418C475.48895,900.25073,476.10883,898.60547,477.35602,895.4214C477.6302,894.7212,478.1568,894.3096,478.6087,894.0006C479.0655,893.6887,479.7168,893.2977,480.64734,893.05896C485.31116,891.86206,487.8867,891.02893,488.5333,890.6874C490.13535,889.84204,492.4468,888.4136,495.3021,886.0603C501.53018,895.0619,505.37204,902.902,507.10178,909.5127C508.74295,915.78394,509.35794,925.0654,508.6735,937.4315L533.7836,939.9989L561.1854,934.5088C557.821,919.3169,556.0084,908.75696,555.4808,902.8506C554.8915,896.25415,554.9947,888.00446,556.05707,878.0755L577.8525,893.4362L579.63385,900.71875C583.34875,904.6,587.42,904.6516,587.42,904.6516C592.21436,904.71295,597.48413,900.946,597.48413,900.946C598.0688,896.21063,597.85205,892.30475,596.87915,889.2132C596.01843,886.4792,594.5262,883.87506,592.3572,881.4161C591.9477,880.5336,586.73065,875.6192,576.69965,866.6807C575.47687,865.59125,573.7041,862.81744,571.03174,858.5693C570.33453,857.46027,569.2189,856.6021,568.00696,855.78094C559.9358,850.31305,549.1675,847.4986,535.7209,847.309L532.791,843.79376 Z"/> </g> <g style="fill:rgb(0,0,0); fill-opacity:1.0; stroke-linejoin: miter"> <path d="M532.73285,987.74725L530.8791,1007.87054L529.55,1003.53595L532.6664,988.07635 M560.9351,932.9966Q541.0014,941.98694,508.69357,936.5038Q501.35526,1017.53656,522.4982,1041.1421L516.12805,1081.7227L531.5953,1084.7738L537.7367,1065.8231L550.21313,1082.2394L562.539,1066.5842L547.0811,1036.8346Q547.4074,1030.1313,563.5632,957.1831Q565.4024,943.5652,560.98596,933.13904 Z"/> </g> <g style="fill:rgb(255,187,152); fill-opacity:1.0; stroke-linejoin: miter"> <path d="M520.3809,816.3639Q516.2283,816.1356,514.0321,819.078Q512.218,821.218,511.32303,828.5386L510.06467,827.87256Q509.81686,819.7258,508.64322,820.36145Q508.05917,820.86884,507.38486,823.5557Q506.84232,825.9078,506.95926,827.493Q507.0709,829.77045,509.57388,831.2064Q509.21713,836.82556,511.155,842.2142L510.3113,844.94525Q512.9085,849.41034,515.41144,852.1235Q518.1012,855.1232,523.83984,859.9876L529.7134,851.5467Q531.4647,846.914,532.5051,843.3416Q534.3521,840.0082,535.1847,837.8008Q537.9082,830.452,537.5128,824.8146Q537.0328,819.62524,534.2666,818.25256Q533.3329,817.7905,531.9803,817.61365L526.9777,817.24475Q520.68884,816.27185,520.38434,816.36426 Z"/> </g> <g style="fill:rgb(0,0,0); fill-opacity:0.09411765; stroke-linejoin: miter"> <path d="M530.593,852.201L527.40625,858.65717L537.0796,859.3199L530.5991,852.2076L530.593,852.201L530.5929,852.2016 Z M515.029,853.1374L510.6495,860.2193L520.8354,858.4451L515.03864,853.1463L515.029,853.1374L515.029,853.1381 Z M563.24634,870.1672Q560.8,871.93243,559.6632,873.3625Q559.13776,874.0191,558.67554,874.8249Q558.2507,875.5555,557.6423,876.87604L563.2475,870.168L563.24835,870.1672L563.24634,870.1674 Z M575.42487,868.0163Q574.3074,872.24115,573.8056,875.24457Q573.4255,877.44025,572.9535,881.4897L575.4265,868.0163L575.42487,868.0168 Z M490.5887,877.5585L495.65762,885.1205Q495.67142,883.39087,494.68973,881.98987Q493.65604,880.4485,490.5956,877.5646L490.5887,877.5585L490.5887,877.5592 Z M594.083,886.60345Q587.6466,888.7098,585.0369,890.12286Q582.82477,891.2712,580.8682,893.3072L594.0799,886.60626L594.08484,886.60345L594.083,886.6037 Z M476.95276,873.9093L481.53857,883.7565Q482.45685,889.89685,482.945,890.25037Q483.02008,890.333,483.0924,890.3364Q483.29767,890.34595,483.48346,889.7167Q483.7226,888.81616,483.71143,887.50806Q483.6787,885.12805,482.8676,882.88586Q481.45935,879.06006,476.9604,873.91736L476.95276,873.9093L476.95276,873.9098 Z M468.7829,886.06506L475.0103,895.90466Q474.20447,892.52747,473.01984,890.73035Q471.77496,888.756,468.79004,886.07104L468.7829,886.06506L468.7829,886.0654 Z M460.7531,899.3434Q464.23694,901.6747,465.9892,902.4856Q467.61243,903.2683,469.5345,903.4468L460.75824,899.34546L460.75403,899.3434L460.7531,899.3439 Z M522.97107,862.5246Q522.1888,877.71796,524.94403,895.0014Q526.4387,904.2803,529.3976,916.9147Q531.068,924.0383,532.9276,931.0502Q533.94617,934.87146,534.6058,937.1012Q535.0772,938.6963,535.14655,938.69995Q535.16925,938.7009,535.14935,938.5338Q535.0834,937.98,534.46924,935.1881L530.44904,917.13074Q529.5246,912.85864,528.6562,908.5021Q526.73334,898.96326,524.2296,883.69794L522.9738,862.5496L522.9723,862.5246L522.97107,862.5247 Z"/> </g> <g style="fill:rgb(255,16,0); fill-opacity:0.14901961; stroke-linejoin: miter"> <path d="M532.6034,842.404Q528.686,846.814,526.5308,848.3299Q523.90955,850.2236,521.72986,850.09076Q517.44727,849.89044,511.32632,841.41986L521.7623,856.2961L532.5783,842.4367 Z"/> </g> <g style="fill:rgb(255,187,152); fill-opacity:1.0; stroke-linejoin: miter"> <path d="M581.12476,900.66797C584.31555,903.48267,588.28925,903.37866,588.28925,903.37866C592.26263,903.2752,596.853,900.83636,596.853,900.83636C597.6959,897.39154,603.2031,884.11176,609.924,867.586C612.8904,868.02374,615.1166,867.96136,616.60284,867.39886L630.6111,862.3605C632.52374,861.5725,633.7545,860.8286,633.9927,860.01526C634.31036,858.9276,633.2026,858.5985,630.9878,859.09155C629.4654,859.4309,626.29205,860.81396,621.4705,863.2555C629.1162,858.3146,633.04474,855.00977,633.1481,853.333C633.18976,852.6587,632.15906,852.7915,630.17993,853.7666C628.0188,854.83203,624.86395,856.7532,620.6991,859.4973C626.3745,855.48865,629.7473,852.3469,630.81793,850.07275C630.8518,849.62634,630.3252,849.6621,629.2379,850.181L619.636,855.6919C618.1323,856.4794,617.269,856.75586,616.9913,856.61597C616.6883,856.46313,616.8416,855.88074,617.495,854.7704L622.1512,847.87146C622.5897,847.0737,622.61755,846.5541,622.1937,846.4829C621.7164,846.40234,620.974,846.8782,619.98596,847.7361C619.981,847.59717,618.79504,849.03186,616.32214,851.9514C615.7546,852.62195,615.06744,853.1647,614.35785,853.6633C613.80536,854.05115,613.2399,854.39685,612.6431,854.6549C609.65027,855.9486,607.9417,856.7196,607.5046,856.9602C606.48846,857.5187,605.5604,858.0985,604.7087,858.6985C602.0223,860.59155,599.2566,864.0544,596.43066,869.13654C595.2475,871.26385,593.96906,873.73615,592.622,876.5678 Z"/> </g> <g style="fill:rgb(0,0,0); fill-opacity:0.43137255; stroke-linejoin: miter"> <path d="M641.4616,1103.2366L639.6421,1103.5522Q633.8925,1103.9761,618.29974,1104.3246Q610.5033,1104.4988,600.2462,1104.654Q572.4498,1105.026,563.93756,1105.0778Q549.8927,1105.2047,534.7394,1105.2981Q527.85535,1105.366,486.7853,1105.5028Q453.15338,1105.5891,415.08774,1105.541Q378.75903,1105.474,348.896,1105.2922Q333.96445,1105.201,320.6493,1105.0814Q312.98154,1105.0397,284.34088,1104.658Q235.71138,1103.8702,243.95168,1103.0211Q247.57353,1102.5983,261.8831,1102.2411Q269.03796,1102.0625,278.86475,1101.9003Q282.26642,1101.807,314.04007,1101.4541Q366.84528,1100.9331,442.13513,1100.9111Q479.78012,1100.922,511.80392,1101.0577Q527.8158,1101.1259,542.4223,1101.225Q577.7092,1101.4999,583.08026,1101.5923Q608.0776,1101.8839,622.3872,1102.2412Q629.542,1102.4197,634.0249,1102.6147Q637.93616,1102.702,641.4616,1103.2366"/> </g> </g> </svg>